<?xml version="1.0" encoding="UTF-8" standalone="no"?>
<!-- Created with Inkscape (http://www.inkscape.org/) -->

<svg
   width="179.06871mm"
   height="176.19954mm"
   viewBox="0 0 179.06871 176.19954"
   version="1.1"
   id="svg5"
   xml:space="preserve"
   xmlns="http://www.w3.org/2000/svg"
   xmlns:svg="http://www.w3.org/2000/svg"><defs
     id="defs2" /><g
     id="layer1"
     style="fill:#ffffff;fill-opacity:1"
     transform="translate(0.10452322,0.08635179)"><g
       style="fill:#ffffff;fill-opacity:1;stroke-width:0.999677;stroke-dasharray:none"
       id="g2238"
       transform="matrix(0.22372123,0,0,0.3046875,77.727261,10)"><rect
         style="fill:none;fill-opacity:1;stroke:#ffffff;stroke-width:0.261;stroke-linecap:square;stroke-linejoin:miter;stroke-dasharray:none;stroke-opacity:1"
         id="rect523"
         width="87.667381"
         height="173.66739"
         x="91.166313"
         y="1.1663084"
         transform="matrix(4.4698485,0,0,3.2820513,-347.42908,-32.820513)" /><path
         id="path519"
         style="fill:#ffffff;fill-opacity:1;stroke:#ffffff;stroke-width:0.261;stroke-dasharray:none;stroke-opacity:1"
         d="M 90.408435,0.04547526 C 74.955905,-0.01667868 59.430035,2.1042437 44.287219,6.4688558 30.36388,10.481979 17.248522,16.22846 4.5402913,23.883813 2.6229271,25.03882 0.81696997,26.287189 0.52709961,26.657804 -0.19091237,27.575824 -0.13547942,28.645975 0.68109538,29.621965 1.7907781,30.948283 2.8548374,30.778701 6.1112549,28.757418 26.531293,16.082553 50.194622,8.1542405 75.000073,5.6766561 79.041323,5.2730135 86.105127,5.0580121 92.093604,5.0880615 V 0.0738973 C 91.531807,0.06586437 90.970448,0.04773582 90.408435,0.04547526 Z M 90.386214,10.182841 c -5.696138,-0.0259 -11.381174,0.08855 -14.202234,0.356567 -21.262015,2.02 -39.868528,7.254567 -58.252775,16.387631 -7.821589,3.885666 -16.698432,9.199026 -17.5487994,10.504268 -0.59235348,0.909209 -0.31919477,2.33599 0.58394368,3.05046 C 2.0983649,41.377299 3.074053,41.178164 5.6694214,39.522135 23.914788,27.8803 45.154181,19.935282 66.710657,16.68787 c 8.359039,-1.259261 11.62258,-1.467505 23.025984,-1.468644 0.859304,-8.6e-5 1.585015,0.0042 2.356963,0.0067 v -5.0245 c -0.572131,-0.0055 -1.132556,-0.01599 -1.70739,-0.0186 z M 29.735136,29.992485 c -1.40668,0.03195 -2.056453,0.470629 -2.455147,1.328084 -0.512568,1.102357 -1.363523,5.324926 -1.901693,9.43715 -0.59771,4.567174 -0.406981,13.629523 0.380338,18.076933 2.824781,15.956617 10.516768,29.302166 22.859587,39.661145 l 0.838192,0.703316 -0.373104,1.794207 c -0.484687,2.3298 -0.907919,5.86482 -1.136882,9.49658 l -0.183451,2.90525 -6.315377,3.90983 c -7.316813,4.52997 -7.865941,5.09576 -6.854878,7.06211 0.742691,1.44441 1.234897,1.46533 8.216036,0.35088 l 6.344315,-1.01286 0.707967,2.65875 c 1.38622,5.20593 4.0748,11.379 6.79235,15.59543 l 1.173572,1.82108 -0.912089,1.61954 c -0.779154,1.383 -2.545478,5.33851 -3.057178,6.84661 -0.08643,0.25473 -0.30856,0.46312 -0.494026,0.46302 -0.563266,-3.4e-4 -7.034724,-3.26099 -9.392709,-4.73253 -13.510702,-8.43156 -23.594066,-22.5144 -27.214876,-38.01008 -1.223732,-5.23711 -1.595318,-8.57137 -1.594218,-14.291633 0.0014,-7.325296 1.0497,-13.710646 3.354317,-20.430277 0.696949,-2.032109 0.664922,-2.783699 -0.156579,-3.697966 -0.687607,-0.765255 -1.687827,-0.985097 -2.652035,-0.583427 -1.537802,0.640618 -6.2708531,9.096947 -8.4625322,15.120007 -3.6235388,9.958025 -4.6462336,21.272496 -2.876827,31.823376 2.5220719,15.039 11.0280672,29.49595 23.0001462,39.09219 5.818028,4.66345 13.57805,8.92901 20.526396,11.28303 l 3.815788,1.29295 0.195853,1.94717 c 0.261627,2.59953 0.627415,3.61232 1.470195,4.07262 1.145252,0.62551 2.098812,0.49685 2.995166,-0.40463 0.776149,-0.78058 0.799089,-0.86836 0.627869,-2.44791 -0.09768,-0.90114 -0.251865,-2.65038 -0.342615,-3.88659 -0.217134,-2.95778 -0.581517,-3.33818 -4.156852,-4.3434 C 44.39166,162.23273 36.13487,157.87579 29.736686,152.50077 26.69906,149.9489 22.724356,145.82169 20.592542,143.00522 10.445621,129.59951 6.4566092,113.25211 9.3983927,97.131022 l 0.4588868,-2.514575 0.1989545,2.382283 c 0.624844,7.49101 0.804471,9.02188 1.406115,11.95896 3.535271,17.25832 13.715853,32.47783 28.142985,42.07392 4.050199,2.69396 8.4645,5.02115 12.493812,6.58616 4.058971,1.57654 4.88737,1.27511 5.927803,-2.15542 0.751181,-2.47681 2.37363,-6.39669 2.864425,-6.92 0.242683,-0.25876 0.61217,0.0169 1.717724,1.28003 3.475536,3.97098 10.247893,9.20685 15.046627,11.6334 2.587317,1.30831 3.613733,1.36047 4.557861,0.23203 1.42877,-1.7077 0.698493,-3.09804 -2.50734,-4.77542 -7.422509,-3.88368 -14.71981,-10.75838 -19.141984,-18.03301 -2.887486,-4.75003 -4.865538,-9.54382 -6.113839,-14.81874 -0.456468,-1.92887 -0.950458,-3.84063 -1.098124,-4.2478 -0.394079,-1.08661 -1.493254,-1.5604 -3.158464,-1.36219 l -1.37821,0.16382 1.774569,-1.09503 c 0.975797,-0.60229 1.877942,-1.29723 2.005045,-1.54461 0.127105,-0.24738 0.299383,-2.47446 0.382923,-4.94905 0.158523,-4.69602 0.354421,-6.30896 1.262455,-10.40298 0.300411,-1.354471 0.47495,-2.747348 0.38809,-3.09542 -0.09322,-0.373553 -1.370495,-1.655253 -3.117123,-3.127974 -1.627485,-1.372264 -3.862243,-3.44595 -4.966105,-4.608504 C 33.444263,75.993087 27.642656,57.218245 30.685465,38.467936 c 0.23981,-1.477753 0.529993,-2.839663 0.644922,-3.026688 0.310498,-0.505266 5.288302,0.555146 10.01696,2.133719 19.238697,6.422467 33.69398,22.051659 38.804867,41.956096 0.652376,2.540699 1.041918,3.578974 1.488281,3.969783 0.575715,0.504157 0.963578,0.528109 8.163326,0.506429 0.991633,-0.003 1.518573,-0.0147 2.289783,-0.01964 V 78.89854 l -2.339909,-10e-4 -4.588351,-0.001 L 84.32922,76.0378 C 77.727908,53.471653 59.448884,36.217004 36.730575,31.106112 33.305169,30.335505 31.141816,29.960538 29.735136,29.992485 Z m 5.812048,10.766267 c -0.411139,-0.02054 -0.73361,0.02535 -0.986503,0.132292 -0.438818,0.185564 -0.874386,0.539042 -0.968416,0.785482 -0.09403,0.246437 -0.171049,1.801496 -0.171049,3.45612 0,15.64392 8.001999,31.595159 20.629232,41.122037 2.384747,1.799225 5.547705,3.847612 6.588228,4.266407 0.714162,0.287438 1.150617,0.148587 3.933093,-1.251604 1.284212,-0.646237 3.77102,-1.711149 5.526278,-2.366263 1.755259,-0.655111 3.349725,-1.390815 3.542936,-1.635043 C 74.423795,84.278675 73.030308,77.701193 70.883529,72.252437 65.633492,58.927281 55.235774,48.290657 42.15815,42.866117 38.812206,41.478235 36.780602,40.820373 35.547184,40.758752 Z m 1.740462,4.475696 1.553394,0.568441 c 13.044637,4.77682 23.73912,15.465225 28.618925,28.602905 0.889668,2.39521 2.276864,7.289607 2.276864,8.033102 0,0.184662 -0.740256,0.610138 -1.644861,0.945678 -0.904604,0.335538 -2.754993,1.124493 -4.111894,1.752865 -1.356899,0.628374 -2.600302,1.137414 -2.763139,1.131714 -0.353828,-0.01233 -3.870667,-2.45488 -6.097302,-4.234884 -2.425224,-1.938758 -6.884925,-6.727525 -8.87181,-9.526033 -2.117996,-2.983171 -5.381962,-9.466503 -6.503996,-12.919625 -1.085617,-3.341054 -2.063823,-8.336878 -2.27893,-11.638049 z m 30.406413,52.954907 c -0.377149,0 -3.167213,1.453146 -6.401159,3.333645 -6.218328,3.61588 -6.578008,3.9538 -5.906617,5.55108 0.644352,1.53297 5.468753,9.78399 5.985682,10.23711 0.290612,0.25474 0.771143,0.46302 1.067635,0.46302 0.726805,0 11.976803,-6.54339 12.302608,-7.15564 0.141816,-0.2665 0.257865,-0.7479 0.257865,-1.0697 0,-0.68128 -5.351354,-10.210745 -6.119006,-10.896494 -0.28516,-0.254736 -0.819302,-0.463021 -1.187008,-0.463021 z m -0.833541,4.975405 c 0.144468,-0.0176 0.228843,0.0145 0.274919,0.0863 0.502777,0.78394 3.127974,5.47919 3.127974,5.59449 0,0.0673 -1.509958,0.99023 -3.35535,2.05104 -1.845393,1.06082 -3.431336,1.9695 -3.523816,2.019 -0.09248,0.0495 -0.938413,-1.27219 -1.879989,-2.93677 l -1.71204,-3.02618 3.554822,-2.03295 c 2.105392,-1.20381 3.080079,-1.70221 3.51348,-1.75493 z m 22.993946,0.31781 c -8.700342,0 -9.016507,0.0182 -9.687264,0.54881 l -0.693498,0.54828 v 5.89473 c 0,6.26007 0.01832,6.35613 1.315682,6.85282 0.217105,0.0831 4.388188,0.12846 9.269202,0.10076 0.877689,-0.005 1.321736,-0.0108 2.035018,-0.0155 v -3.95945 l -2.290817,0.0253 -6.381522,0.0708 v -3.05304 -3.05305 l 6.381522,0.0708 2.290817,0.0258 v -4.05195 c -0.764467,-10e-4 -1.284208,-0.005 -2.23914,-0.005 z m -0.108521,18.7911 c -0.812004,0 -1.502713,0.61406 -7.936983,7.05642 -3.876262,3.88114 -7.218995,7.41208 -7.42797,7.84603 -0.270424,0.56155 -0.309551,0.99198 -0.135909,1.49294 0.134186,0.38712 3.472258,3.9425 7.418151,7.90132 6.587018,6.60861 7.248346,7.19801 8.073926,7.19801 0.46167,0 0.912503,-0.22942 2.356446,-1.56786 v -5.4684 c -1.324028,1.30441 -2.32469,2.27221 -2.374533,2.27221 -0.08469,0 -2.561795,-2.45174 -5.50509,-5.44824 l -5.351611,-5.44773 5.437394,-5.4684 5.436877,-5.4684 2.356963,2.37039 v -5.69267 c -1.376319,-1.2674 -1.897787,-1.57562 -2.347661,-1.57562 z"
         transform="matrix(4.4698485,0,0,3.2820513,-347.42908,-32.820513)" /><path
         d="m 384.001,0 h -47.407 c -5.236,0 -10.533,3.625 -10.533,8.866 V 56.889 H 288.135 V 8.866 C 288.135,3.625 284.94,0 279.705,0 H 222.816 C 217.58,0 212.283,3.625 212.283,8.866 V 56.889 H 174.357 V 8.866 C 174.357,3.625 171.162,0 165.927,0 H 118.52 c -5.237,0 -10.532,3.625 -10.532,8.866 v 66.37 c 0,2.158 1.257,4.396 2.604,6.081 l 38.45,47.56 c 1.796,2.25 4.523,3.863 7.404,3.863 h 180.148 c 2.513,0 4.926,-1.308 6.704,-3.086 l 46.882,-47.56 c 1.778,-1.778 2.252,-4.34 2.252,-6.859 V 8.866 C 392.431,3.625 389.236,0 384.001,0 Z m -10.533,71.31 -40.802,42.468 H 160.999 L 126.949,71.912 V 18.963 h 28.444 v 46.792 c 0,5.241 5.296,10.097 10.532,10.097 h 56.889 c 5.235,0 8.43,-4.856 8.43,-10.097 V 18.963 h 37.926 v 46.792 c 0,5.241 5.296,10.097 10.532,10.097 h 56.889 c 5.235,0 8.43,-4.856 8.43,-10.097 V 18.963 h 28.444 V 71.31 Z"
         id="path2215"
         style="fill:#ffffff;fill-opacity:1;stroke:#ffffff;stroke-width:0.999677;stroke-dasharray:none;stroke-opacity:1"
         transform="translate(5.8666761e-6)" /><path
         d="m 412.259,500.35 c -0.11,-0.546 -11.852,-54.72 -85.147,-54.72 H 184.89 c -73.297,0 -85.037,54.174 -85.149,54.72 -0.559,2.787 0.162,5.831 1.963,8.025 1.801,2.195 4.491,3.625 7.335,3.625 h 293.926 c 2.843,0 5.531,-1.431 7.332,-3.625 1.801,-2.194 2.523,-5.239 1.962,-8.025 z m -289.037,-7.313 c 7.121,-11.852 23.871,-28.444 61.668,-28.444 h 142.222 c 37.824,0 54.565,16.593 61.676,28.444 z"
         id="path2209"
         style="fill:#ffffff;fill-opacity:1;stroke:#ffffff;stroke-width:0.999677;stroke-dasharray:none;stroke-opacity:1"
         transform="translate(5.8666761e-6)" /><path
         d="M 336.593,142.222 H 175.408 c -5.236,0 -10.533,3.625 -10.533,8.866 v 37.926 c 0,5.241 5.296,10.097 10.533,10.097 h 161.185 c 5.235,0 8.43,-4.856 8.43,-10.097 v -37.926 c 10e-4,-5.241 -3.195,-8.866 -8.43,-8.866 z m -10.532,37.926 H 183.839 v -18.963 h 142.222 z"
         id="path2203"
         style="fill:#ffffff;fill-opacity:1;stroke:#ffffff;stroke-width:0.999677;stroke-dasharray:none;stroke-opacity:1"
         transform="translate(5.8666761e-6)" /><path
         d="M 345.907,414.947 307.981,216.065 c -0.851,-4.472 -4.764,-7.472 -9.314,-7.472 h -85.333 c -4.552,0 -8.464,2.924 -9.315,7.396 l -37.926,198.958 c -0.529,2.778 0.208,5.877 2.008,8.053 1.802,2.176 4.482,3.667 7.307,3.667 h 161.185 c 2.824,0 5.503,-1.567 7.305,-3.743 1.802,-2.176 2.537,-5.2 2.009,-7.977 z M 186.865,407.704 221.18,227.556 h 69.639 l 34.316,180.148 z"
         id="path2197"
         style="fill:#ffffff;fill-opacity:1;stroke:#ffffff;stroke-width:0.999677;stroke-dasharray:none;stroke-opacity:1"
         transform="translate(5.8666761e-6)" /></g></g></svg>
